<svg xmlns="http://www.w3.org/2000/svg" width="35" height="35" viewBox="0 0 35 35">
    <g fill="none" fill-rule="evenodd">
        <g fill="#00C8FF" fill-rule="nonzero">
            <path d="M22.369 26.502H12.67a1.27 1.27 0 0 1-1.27-1.27v-8.985a.424.424 0 0 1 .847 0v8.985c0 .233.19.423.423.423h9.699c.233 0 .423-.19.423-.424v-8.984a.423.423 0 1 1 .847 0v8.985c-.002.7-.57 1.268-1.27 1.27z"/>
            <path d="M17.5 23.471a.423.423 0 0 1-.423-.423v-5.6a.424.424 0 0 1 .846 0v5.6c0 .233-.19.423-.423.423zM14.956 23.471a.423.423 0 0 1-.424-.423v-5.6a.424.424 0 0 1 .847 0v5.6c0 .233-.19.423-.423.423zM20.044 23.471a.423.423 0 0 1-.423-.423v-5.6a.424.424 0 0 1 .847 0v5.6c0 .233-.19.423-.424.423zM23.429 14.91H11.571a1.274 1.274 0 0 1-1.27-1.26v-1.704c0-.702.568-1.271 1.27-1.271h11.858c.702 0 1.27.569 1.27 1.27v1.705a1.274 1.274 0 0 1-1.27 1.26zm-11.858-3.388a.424.424 0 0 0-.423.424v1.704c0 .234.19.423.423.423h11.858c.234 0 .424-.19.424-.423v-1.705a.423.423 0 0 0-.424-.423H11.571z"/>
            <path d="M20.044 11.522a.424.424 0 0 1-.423-.423v-1.33a.424.424 0 0 0-.424-.424h-3.395a.424.424 0 0 0-.423.424v1.33a.424.424 0 0 1-.847 0v-1.33c.002-.701.57-1.27 1.27-1.271h3.395c.701.002 1.27.57 1.271 1.27v1.33c0 .234-.19.424-.424.424z"/>
        </g>
        <path d="M0 0h35v35H0z"/>
    </g>
</svg>
