<svg xmlns="http://www.w3.org/2000/svg" width="35" height="35" viewBox="0 0 35 35">
    <g fill="none" fill-rule="evenodd">
        <g fill="#00377D" fill-rule="nonzero">
            <path d="M20.916 26.575h-6.832c-.92 0-1.666-.745-1.666-1.666V10.09c0-.92.746-1.666 1.666-1.666h6.832c.92 0 1.666.746 1.666 1.666v14.82c0 .92-.746 1.665-1.666 1.665zM14.084 9.272a.819.819 0 0 0-.819.818v14.82a.819.819 0 0 0 .819.818h6.832a.819.819 0 0 0 .819-.819V10.09a.819.819 0 0 0-.819-.819h-6.832z"/>
            <path d="M16.733 24.388a.423.423 0 1 1 0-.847h1.523a.423.423 0 1 1 0 .847h-1.522z"/>
        </g>
        <path d="M0 0h35v35H0z"/>
    </g>
</svg>
