<svg xmlns="http://www.w3.org/2000/svg" width="100" height="100" viewBox="0 0 100 100">
    <g fill="none" fill-rule="evenodd">
        <path fill="#00377D" fill-rule="nonzero" d="M71.48 77.05H60.06a2.42 2.42 0 0 1-2.42-2.42V56.81H42.36v17.82a2.42 2.42 0 0 1-2.42 2.42H28.52a2.42 2.42 0 0 1-2.42-2.42V52.72h-3.62a2.42 2.42 0 0 1-1.69-4.15l27.52-26.93a2.42 2.42 0 0 1 3.38 0l27.52 26.93a2.42 2.42 0 0 1-1.69 4.15H73.9v21.91a2.42 2.42 0 0 1-2.42 2.42zM50 23.37L22.48 50.3h3.62a2.42 2.42 0 0 1 2.42 2.42v21.91h11.42V56.81a2.42 2.42 0 0 1 2.42-2.42h15.28a2.43 2.43 0 0 1 2.42 2.42v17.82h11.42V52.72a2.42 2.42 0 0 1 2.42-2.42h3.62L50 23.37z"/>
        <path d="M0 0h100v100H0z"/>
    </g>
</svg>
