<svg xmlns="http://www.w3.org/2000/svg" width="45" height="45" viewBox="0 0 45 45">
    <g fill="none" fill-rule="evenodd">
        <path d="M0 0h45v45H0z"/>
        <path fill="#F01E46" d="M22.5 45C34.926 45 45 34.926 45 22.5S34.926 0 22.5 0 0 10.074 0 22.5 10.074 45 22.5 45z"/>
        <path fill="#FFF" d="M22.571 20.45l6.01-6.01a1.5 1.5 0 0 1 2.122 2.12l-6.01 6.011 6.01 6.01a1.5 1.5 0 0 1-2.122 2.122l-6.01-6.01-6.01 6.01a1.5 1.5 0 0 1-2.122-2.122l6.01-6.01-6.01-6.01a1.5 1.5 0 0 1 2.122-2.122l6.01 6.01z"/>
    </g>
</svg>
