<svg xmlns="http://www.w3.org/2000/svg" width="46" height="47" viewBox="0 0 46 47">
    <g fill="none" fill-rule="evenodd">
        <path d="M0 0h46v46.939H0z"/>
        <path fill="#FFAA32" d="M45.56 39.723c.895 1.624.38 3.712-1.148 4.663a3.064 3.064 0 0 1-1.62.467H3.207C1.436 44.853 0 43.327 0 41.444c0-.605.152-1.2.44-1.721L20.23 3.773c.895-1.624 2.86-2.17 4.389-1.22.475.296.87.716 1.148 1.22l19.792 35.95z"/>
        <path fill="#FFF" d="M21.909 34.88a1.52 1.52 0 0 1 2.174 0c.29.294.452.695.45 1.113a1.55 1.55 0 0 1-.46 1.114 1.51 1.51 0 0 1-1.077.444 1.501 1.501 0 0 1-1.08-.453 1.577 1.577 0 0 1-.45-1.105 1.578 1.578 0 0 1 .443-1.114zm1.124-21.32a1.5 1.5 0 0 1 1.5 1.5v13.69a1.5 1.5 0 0 1-1.5 1.5h-.066a1.5 1.5 0 0 1-1.5-1.5V15.06a1.5 1.5 0 0 1 1.5-1.5h.066z"/>
    </g>
</svg>
