<?xml version="1.0" encoding="UTF-8"?>
<svg width="20px" height="15px" viewBox="0 0 20 15" version="1.1" xmlns="http://www.w3.org/2000/svg" xmlns:xlink="http://www.w3.org/1999/xlink">
    <!-- Generator: Sketch 53.2 (72643) - https://sketchapp.com -->
    <title>tarjeta/deshabilitado</title>
    <desc>Created with Sketch.</desc>
    <g id="Symbols" stroke="none" stroke-width="1" fill="none" fill-rule="evenodd">
        <g id="COLAPSABLE/metodo_de_pago" transform="translate(-27.000000, -23.000000)" fill="#00377B">
            <g id="icn/tc" transform="translate(25.000000, 18.000000)">
                <path d="M19.9259855,18.1106299 C20.2603506,18.1106299 20.5324213,17.832982 20.5324213,17.4917627 L20.5324213,11.3784828 L3.46748753,11.3784828 L3.46748753,17.4917627 C3.46748753,17.832982 3.73946701,18.1106299 4.07383212,18.1106299 L19.9259855,18.1106299 Z M4.07383212,6.68937009 C3.73946701,6.68937009 3.46748753,6.96701799 3.46748753,7.30823729 L3.46748753,9.83517753 L20.5324213,9.83517753 L20.5324213,7.30823729 C20.5324213,6.96701799 20.2603506,6.68937009 19.9259855,6.68937009 L4.07383212,6.68937009 Z M19.9259855,5.6 C20.849001,5.6 21.6,6.36630075 21.6,7.30823729 L21.6,17.4917627 C21.6,18.4336993 20.849001,19.2 19.9259855,19.2 L4.07383212,19.2 C3.15081659,19.2 2.4,18.4336993 2.4,17.4917627 L2.4,7.30823729 C2.4,6.36630075 3.15081659,5.6 4.07383212,5.6 L19.9259855,5.6 Z M14.9344978,16.7622642 C14.6566672,16.7622642 14.431441,16.5324933 14.431441,16.2490566 C14.431441,15.9656199 14.6566672,15.7358491 14.9344978,15.7358491 L18.7157986,15.7358491 C18.9936291,15.7358491 19.2188553,15.9656199 19.2188553,16.2490566 C19.2188553,16.5324933 18.9936291,16.7622642 18.7157986,16.7622642 L14.9344978,16.7622642 Z" id="Combined-Shape"></path>
            </g>
        </g>
    </g>
</svg>