<svg xmlns="http://www.w3.org/2000/svg" width="56" height="38" viewBox="0 0 56 38">
    <g fill="none" fill-rule="evenodd">
        <path fill="#0168AA" stroke="#D9D9D9" d="M54 32.916c-.003 1.702-1.43 3.08-3.19 3.084H3.195C1.433 36 .003 34.62 0 32.916V3.09C0 1.383 1.431 0 3.196 0H50.81C52.572.003 54 1.386 54 3.09v29.826z" transform="translate(1 1)"/>
        <path fill="#FFF" d="M37.043 18.392v.085c-.164 5.359-4.351 9.697-9.606 9.697H24.07c-5.091-.085-9.196-4.423-9.196-9.697-.165-5.274 3.776-9.697 8.785-9.867h3.777c5.255-.085 9.524 4.338 9.606 9.782zm-12.726-8.08c-4.27 0-7.8 3.657-7.8 8.08s3.53 8.08 7.8 8.08 7.8-3.657 7.8-8.08-3.53-8.08-7.8-8.08zm1.231 2.721c2.874.766 4.68 3.743 3.942 6.72-.493 2.041-1.971 3.572-3.942 4.083V13.033zm-2.463 0v10.803c-2.874-.766-4.598-3.828-3.859-6.805.493-1.956 1.97-3.488 3.86-3.998z" transform="translate(1 1)"/>
    </g>
</svg>
