<svg xmlns="http://www.w3.org/2000/svg" width="34" height="22" viewBox="0 0 34 22">
    <g fill="none" fill-rule="evenodd">
        <g transform="translate(1 1)">
            <path fill="#FFF" stroke="#D9D9D9" d="M31.797 18.21c-.002.941-.842 1.704-1.879 1.706H1.882c-1.038 0-1.88-.764-1.882-1.707V1.71C0 .765.843 0 1.882 0h28.036c1.038.002 1.879.767 1.879 1.71v16.5z"/>
            <ellipse cx="11.413" cy="9.741" fill="#EE0005" rx="6.94" ry="6.303"/>
            <ellipse cx="20.015" cy="9.741" fill="#F9A000" rx="6.94" ry="6.303"/>
        </g>
        <path fill="#FF6300" d="M14.075 10.94c-.003 1.925.966 3.745 2.63 4.938 1.66-1.195 2.627-3.014 2.627-4.939 0-1.924-.968-3.743-2.628-4.939-1.663 1.194-2.632 3.015-2.629 4.94z"/>
    </g>
</svg>
