<svg xmlns="http://www.w3.org/2000/svg" xmlns:xlink="http://www.w3.org/1999/xlink" width="32" height="20" viewBox="0 0 32 20">
    <defs>
        <path id="a" d="M2.345.056C1.375.056.589.842.589 1.814v15.825c0 .97.786 1.759 1.756 1.759h27.21c.97 0 1.755-.788 1.755-1.759V1.814c0-.972-.785-1.758-1.755-1.758H2.345z"/>
        <path id="c" d="M6.805.14l-1.83 5.125-.216-1.104v.001L4.112.812S4.034.14 3.2.14H.174L.14.266s.924.195 2.008.853l1.668 6.473h2.001L8.873.141H6.805z"/>
        <path id="e" d="M3.843.14c-.713 0-.888.555-.888.555L.092 7.593h2.002l.4-1.108h2.442l.224 1.108h1.763L5.387.141H3.843zm.214 2.027l.567 2.79H3.048l1.009-2.79z"/>
        <path id="g" d="M1.112 2.474c0 1.925 2.757 1.949 2.757 2.96 0 1.01-2.473.831-3.288.192L.285 7.298s.89.42 2.247.42c1.36 0 3.41-.684 3.41-2.549 0-1.937-2.78-2.118-2.78-2.96 0-.842 1.94-.735 2.793-.276l.283-1.6S5.362.007 4.448.007c-.988 0-3.336.422-3.336 2.467z"/>
        <path id="i" d="M.186.123L.15.233S1.7.5 3.188 1.499c1.422.954 1.888 2.143 1.888 2.143L4.386.71S4.303.123 3.414.123H.186z"/>
        <path id="k" d="M2.345.056C1.375.056.589.842.589 1.814v15.825c0 .97.786 1.759 1.756 1.759h27.21c.97 0 1.755-.788 1.755-1.759V1.814c0-.972-.785-1.758-1.755-1.758H2.345z"/>
        <path id="m" d="M6.805.14l-1.83 5.125-.216-1.104v.001L4.112.812S4.034.14 3.2.14H.174L.14.266s.924.195 2.008.853l1.668 6.473h2.001L8.873.141H6.805z"/>
        <path id="o" d="M3.843.14c-.713 0-.888.555-.888.555L.092 7.593h2.002l.4-1.108h2.442l.224 1.108h1.763L5.387.141H3.843zm.214 2.027l.567 2.79H3.048l1.009-2.79z"/>
        <path id="q" d="M1.112 2.474c0 1.925 2.757 1.949 2.757 2.96 0 1.01-2.473.831-3.288.192L.285 7.298s.89.42 2.247.42c1.36 0 3.41-.684 3.41-2.549 0-1.937-2.78-2.118-2.78-2.96 0-.842 1.94-.735 2.793-.276l.283-1.6S5.362.007 4.448.007c-.988 0-3.336.422-3.336 2.467z"/>
        <path id="s" d="M.186.123L.15.233S1.7.5 3.188 1.499c1.422.954 1.888 2.143 1.888 2.143L4.386.71S4.303.123 3.414.123H.186z"/>
        <path id="u" d="M2.345.056C1.375.056.589.869.589 1.874v16.363c0 1.004.786 1.819 1.756 1.819h27.21c.97 0 1.755-.815 1.755-1.819V1.874c0-1.005-.785-1.818-1.755-1.818H2.345z"/>
        <path id="v" d="M6.805.14l-1.83 5.125-.216-1.104v.001L4.112.812S4.034.14 3.2.14H.174L.14.266s.924.195 2.008.853l1.668 6.473h2.001L8.873.141H6.805z"/>
        <path id="x" d="M3.843.14c-.713 0-.888.555-.888.555L.092 7.593h2.002l.4-1.108h2.442l.224 1.108h1.763L5.387.141H3.843zm.214 2.027l.567 2.79H3.048l1.009-2.79z"/>
        <path id="z" d="M1.112 2.474c0 1.925 2.757 1.949 2.757 2.96 0 1.01-2.473.831-3.288.192L.285 7.298s.89.42 2.247.42c1.36 0 3.41-.684 3.41-2.549 0-1.937-2.78-2.118-2.78-2.96 0-.842 1.94-.735 2.793-.276l.283-1.6S5.362.007 4.448.007c-.988 0-3.336.422-3.336 2.467z"/>
        <path id="B" d="M.186.123L.15.233S1.7.5 3.188 1.499c1.422.954 1.888 2.143 1.888 2.143L4.386.71S4.303.123 3.414.123H.186z"/>
    </defs>
    <g fill="none" fill-rule="evenodd">
        <g>
            <mask id="b" fill="#fff">
                <use xlink:href="#a"/>
            </mask>
            <path fill="#3957A7" d="M-1.604 21.595h35.11V-2.144h-35.11z" mask="url(#b)"/>
        </g>
        <path fill="#FFF" d="M14.154 6L13 13h1.847L16 6z"/>
        <g transform="translate(4 6)">
            <mask id="d" fill="#fff">
                <use xlink:href="#c"/>
            </mask>
            <path fill="#FFF" d="M-2.098 9.865h13.207V-2.133H-2.098z" mask="url(#d)"/>
        </g>
        <g transform="translate(21 6)">
            <mask id="f" fill="#fff">
                <use xlink:href="#e"/>
            </mask>
            <path fill="#FFF" d="M-2.145 9.865H9.16V-2.13H-2.145z" mask="url(#f)"/>
        </g>
        <g transform="translate(15 6)">
            <mask id="h" fill="#fff">
                <use xlink:href="#g"/>
            </mask>
            <path fill="#FFF" d="M-2.036 9.993H8.56v-12.26H-2.036z" mask="url(#h)"/>
        </g>
        <g transform="translate(4 6)">
            <mask id="j" fill="#fff">
                <use xlink:href="#i"/>
            </mask>
            <path fill="#F9A533" d="M-2.238 5.631h9.7v-7.496h-9.7z" mask="url(#j)"/>
        </g>
        <g>
            <mask id="l" fill="#fff">
                <use xlink:href="#k"/>
            </mask>
            <path fill="#3957A7" d="M-1.604 21.595h35.11V-2.144h-35.11z" mask="url(#l)"/>
        </g>
        <path fill="#FFF" d="M14.154 6L13 13h1.847L16 6z"/>
        <g transform="translate(4 6)">
            <mask id="n" fill="#fff">
                <use xlink:href="#m"/>
            </mask>
            <path fill="#FFF" d="M-2.098 9.865h13.207V-2.133H-2.098z" mask="url(#n)"/>
        </g>
        <g transform="translate(21 6)">
            <mask id="p" fill="#fff">
                <use xlink:href="#o"/>
            </mask>
            <path fill="#FFF" d="M-2.145 9.865H9.16V-2.13H-2.145z" mask="url(#p)"/>
        </g>
        <g transform="translate(15 6)">
            <mask id="r" fill="#fff">
                <use xlink:href="#q"/>
            </mask>
            <path fill="#FFF" d="M-2.036 9.993H8.56v-12.26H-2.036z" mask="url(#r)"/>
        </g>
        <g transform="translate(4 6)">
            <mask id="t" fill="#fff">
                <use xlink:href="#s"/>
            </mask>
            <path fill="#F9A533" d="M-2.238 5.631h9.7v-7.496h-9.7z" mask="url(#t)"/>
        </g>
        <path fill="#FFF" d="M14.154 6L13 13h1.847L16 6z"/>
        <g transform="translate(4 6)">
            <mask id="w" fill="#fff">
                <use xlink:href="#v"/>
            </mask>
            <path fill="#FFF" d="M-2.098 9.865h13.207V-2.133H-2.098z" mask="url(#w)"/>
        </g>
        <g transform="translate(21 6)">
            <mask id="y" fill="#fff">
                <use xlink:href="#x"/>
            </mask>
            <path fill="#FFF" d="M-2.145 9.865H9.16V-2.13H-2.145z" mask="url(#y)"/>
        </g>
        <g transform="translate(15 6)">
            <mask id="A" fill="#fff">
                <use xlink:href="#z"/>
            </mask>
            <path fill="#FFF" d="M-2.036 9.993H8.56v-12.26H-2.036z" mask="url(#A)"/>
        </g>
        <g transform="translate(4 6)">
            <mask id="C" fill="#fff">
                <use xlink:href="#B"/>
            </mask>
            <path fill="#F9A533" d="M-2.238 5.631h9.7v-7.496h-9.7z" mask="url(#C)"/>
        </g>
    </g>
</svg>
